:FULLY-SPECIFIED
:FORCE-ALL-JOINTS-BE-3DOF
:DEGREES
388
root 9.45383 16.9874 18.1945 6.29311 0.774628 -5.86421
lfemur -42.46 0.646036 -12.9451
ltibia 38.8471 0 0
lfoot -17.8729 13.6102 0
ltoes -8.1758 0 0
rfemur 4.41867 6.62965 32.2754
rtibia 11.1286 0 0
rfoot -15.7264 5.58926 0
rtoes -12.0065 0 0
lowerback -7.06736 2.12544 2.15858
upperback 0.0834737 2.49122 3.58052
thorax 3.97967 1.24512 2.80246
lowerneck -19.805 -6.27419 -12.7688
upperneck 21.3289 -8.07312 12.6465
head 11.2745 -3.24488 5.51081
lclavicle 5.84031e-15 -8.55227e-15 0
lhumerus -51.8039 -13.8922 97.2851
lradius 28.4442 0 0
lwrist 11.7196 0 0
lhand -12.8392 -24.4149 0
lfingers 7.12502 0 0
lthumb 13.2475 5.13285 0
rclavicle 5.84031e-15 -8.55227e-15 0
rhumerus -28.2122 17.9759 -84.2303
rradius 43.5 0 0
rwrist -21.3928 0 0
rhand -31.1592 -22.0731 0
rfingers 7.12502 0 0
rthumb -4.43689 -52.0088 0
389
root 9.46467 16.9771 18.3293 6.29927 0.589845 -6.07058
lfemur -42.6237 0.260113 -12.483
ltibia 37.3832 0 0
lfoot -17.8525 13.6679 0
ltoes -8.6533 0 0
rfemur 5.62645 6.62857 32.4741
rtibia 9.81109 0 0
rfoot -15.3414 5.76758 0
rtoes -11.8173 0 0
lowerback -7.17798 2.22447 2.29677
upperback 0.135136 2.60368 3.64939
thorax 4.09605 1.30207 2.81468
lowerneck -19.7863 -6.26896 -12.8048
upperneck 21.3094 -8.06155 12.6746
head 11.265 -3.24003 5.52927
lclavicle 6.43245e-15 -1.02551e-14 0
lhumerus -52.0394 -13.5866 97.28
lradius 28.4126 0 0
lwrist 11.5787 0 0
lhand -12.6495 -24.5843 0
lfingers 7.12502 0 0
lthumb 13.4303 4.95118 0
rclavicle 6.43245e-15 -1.02551e-14 0
rhumerus -27.9538 17.8136 -84.2325
rradius 43.2925 0 0
rwrist -21.1697 0 0
rhand -31.1211 -21.9411 0
rfingers 7.12502 0 0
rthumb -4.4001 -51.8777 0
390
root 9.47593 16.9669 18.4648 6.30612 0.408347 -6.27152
lfemur -42.7623 -0.120001 -12.0278
ltibia 35.9238 0 0
lfoot -17.8132 13.7175 0
ltoes -9.124 0 0
rfemur 6.81035 6.62244 32.6625
rtibia 8.53099 0 0
rfoot -14.9397 5.93999 0
rtoes -11.6315 0 0
lowerback -7.287 2.32065 2.43068
upperback 0.183892 2.7128 3.71659
thorax 4.20875 1.35736 2.82709
lowerneck -19.7663 -6.26305 -12.8418
upperneck 21.2903 -8.04916 12.7036
head 11.2553 -3.23483 5.54847
lclavicle 7.02674e-15 -1.19414e-14 0
lhumerus -52.2599 -13.2797 97.272
lradius 28.3747 0 0
lwrist 11.426 0 0
lhand -12.4585 -24.7517 0
lfingers 7.12502 0 0
lthumb 13.6145 4.77149 0
rclavicle 7.02674e-15 -1.19414e-14 0
rhumerus -27.712 17.642 -84.2364
rradius 43.0734 0 0
rwrist -20.9413 0 0
rhand -31.08 -21.8131 0
rfingers 7.12502 0 0
rthumb -4.36043 -51.7505 0
391
root 9.48761 16.9567 18.6007 6.31376 0.230455 -6.46555
lfemur -42.8776 -0.491903 -11.5836
ltibia 34.4779 0 0
lfoot -17.7563 13.759 0
ltoes -9.58344 0 0
rfemur 7.96443 6.61107 32.8388
rtibia 7.29806 0 0
rfoot -14.5216 6.1051 0
rtoes -11.4506 0 0
lowerback -7.39363 2.4138 2.55943
upperback 0.229211 2.81846 3.78149
thorax 4.31671 1.41094 2.83943
lowerneck -19.745 -6.25651 -12.8798
upperneck 21.2719 -8.03603 12.7334
head 11.2456 -3.22935 5.5683
lclavicle 7.62045e-15 -1.3599e-14 0
lhumerus -52.4649 -12.9721 97.2603
lradius 28.3303 0 0
lwrist 11.2618 0 0
lhand -12.2673 -24.9159 0
lfingers 7.12502 0 0
lthumb 13.7988 4.59495 0
rclavicle 7.62045e-15 -1.3599e-14 0
rhumerus -27.4885 17.4626 -84.2427
rradius 42.844 0 0
rwrist -20.7088 0 0
rhand -31.0361 -21.6901 0
rfingers 7.12502 0 0
rthumb -4.318 -51.6283 0
392
root 9.49972 16.9467 18.7373 6.32233 0.0564915 -6.6512
lfemur -42.9715 -0.853188 -11.1545
ltibia 33.0548 0 0
lfoot -17.6833 13.7922 0
ltoes -10.0271 0 0
rfemur 9.0828 6.59429 33.0013
rtibia 6.12207 0 0
rfoot -14.0875 6.26149 0
rtoes -11.2762 0 0
lowerback -7.49706 2.50374 2.68213
upperback 0.270563 2.92055 3.84343
thorax 4.41888 1.46274 2.85145
lowerneck -19.7224 -6.24935 -12.9186
upperneck 21.2544 -8.02222 12.7638
head 11.2359 -3.22363 5.58862
lclavicle 8.21084e-15 -1.5216e-14 0
lhumerus -52.6538 -12.6648 97.2438
lradius 28.2794 0 0
lwrist 11.0865 0 0
lhand -12.0772 -25.0759 0
lfingers 7.12502 0 0
lthumb 13.9819 4.42274 0
rclavicle 8.21084e-15 -1.5216e-14 0
rhumerus -27.285 17.2767 -84.252
rradius 42.6055 0 0
rwrist -20.4735 0 0
rhand -30.9894 -21.5732 0
rfingers 7.12502 0 0
rthumb -4.27292 -51.5123 0
393
root 9.51226 16.9371 18.8745 6.33192 -0.113223 -6.82698
lfemur -43.0458 -1.20145 -10.7446
ltibia 31.6634 0 0
lfoot -17.5957 13.8172 0
ltoes -10.4506 0 0
rfemur 10.1595 6.5719 33.1485
rtibia 5.01275 0 0
rfoot -13.6377 6.40778 0
rtoes -11.1099 0 0
lowerback -7.59647 2.59027 2.79788
upperback 0.307417 3.01895 3.90177
thorax 4.51421 1.51272 2.86291
lowerneck -19.6982 -6.24163 -12.958
upperneck 21.2381 -8.00781 12.7943
head 11.2263 -3.21772 5.60932
lclavicle 8.79517e-15 -1.67801e-14 0
lhumerus -52.8262 -12.3584 97.2219
lradius 28.2217 0 0
lwrist 10.9004 0 0
lhand -11.8897 -25.2305 0
lfingers 7.12502 0 0
lthumb 14.1627 4.25605 0
rclavicle 8.79517e-15 -1.67801e-14 0
rhumerus -27.1031 17.0859 -84.2649
rradius 42.3592 0 0
rwrist -20.2366 0 0
rhand -30.9401 -21.4635 0
rfingers 7.12502 0 0
rthumb -4.22533 -51.4035 0
394
root 9.52525 16.9278 19.0124 6.34267 -0.278367 -6.9914
lfemur -43.1024 -1.5343 -10.3582
ltibia 30.3129 0 0
lfoot -17.4948 13.8338 0
ltoes -10.8494 0 0
rfemur 11.1887 6.54372 33.2787
rtibia 3.97986 0 0
rfoot -13.1727 6.54256 0
rtoes -10.9533 0 0
lowerback -7.69106 2.67321 2.90578
upperback 0.339243 3.11356 3.95585
thorax 4.60163 1.56081 2.87355
lowerneck -19.6725 -6.23338 -12.998
upperneck 21.2233 -7.99287 12.8249
head 11.2168 -3.21168 5.63026
lclavicle 9.37071e-15 -1.82793e-14 0
lhumerus -52.9814 -12.0538 97.1936
lradius 28.1572 0 0
lwrist 10.7038 0 0
lhand -11.7059 -25.3786 0
lfingers 7.12502 0 0
lthumb 14.3398 4.09604 0
rclavicle 9.37071e-15 -1.82793e-14 0
rhumerus -26.9446 16.8915 -84.2822
rradius 42.1063 0 0
rwrist -19.9994 0 0
rhand -30.8883 -21.362 0
rfingers 7.12502 0 0
rthumb -4.17533 -51.3029 0
395
root 9.53869 16.919 19.151 6.35467 -0.438619 -7.143
lfemur -43.1431 -1.84931 -9.9992
ltibia 29.0124 0 0
lfoot -17.3822 13.842 0
ltoes -11.219 0 0
rfemur 12.1645 6.50957 33.3901
rtibia 3.03315 0 0
rfoot -12.6929 6.66442 0
rtoes -10.8079 0 0
lowerback -7.78003 2.75238 3.00496
upperback 0.36551 3.20426 4.00504
thorax 4.68009 1.60696 2.88312
lowerneck -19.6453 -6.22464 -13.0384
upperneck 21.2103 -7.97746 12.8552
head 11.2076 -3.20556 5.65133
lclavicle 9.9347e-15 -1.97014e-14 0
lhumerus -53.1188 -11.7516 97.1581
lradius 28.0856 0 0
lwrist 10.4971 0 0
lhand -11.5271 -25.5193 0
lfingers 7.12502 0 0
lthumb 14.5121 3.94391 0
rclavicle 9.9347e-15 -1.97014e-14 0
rhumerus -26.8111 16.695 -84.3044
rradius 41.8481 0 0
rwrist -19.7631 0 0
rhand -30.8342 -21.2699 0
rfingers 7.12502 0 0
rthumb -4.12303 -51.2117 0
